<svg id="Layer_1" data-name="Layer 1" xmlns="http://www.w3.org/2000/svg" viewBox="0 0 233.01 92.13"><defs><style>.cls-1,.cls-2,.cls-3,.cls-4{fill:none;stroke:#000;stroke-miterlimit:10;}.cls-1{stroke-width:7px;}.cls-2{stroke-width:8px;}.cls-3{stroke-width:12px;}.cls-4{stroke-width:9px;}.cls-5{font-size:36px;}.cls-5,.cls-6{font-family:HelveticaNeue-Medium, Helvetica Neue;}.cls-6{font-size:38px;}.cls-7{letter-spacing:-0.02em;}.cls-8{letter-spacing:0em;}</style></defs><title>logo_black</title><path class="cls-1" d="M2,13.5H39.92a61.18,61.18,0,0,1,41.7,16.42L98.68,45.81c1.21,1.13,2.38,2.3,3.49,3.53L118.8,67.56A61.2,61.2,0,0,0,164,87.5h0" transform="translate(-2 -1.5)"/><path class="cls-2" d="M2,83.5H38.9a61.21,61.21,0,0,0,43-17.62L99.35,48.63c.77-.75,1.51-1.53,2.24-2.32L118.8,27.44A61.2,61.2,0,0,1,164,7.5h0" transform="translate(-2 -1.5)"/><line class="cls-3" x1="198.47" y1="6" x2="174.22" y2="6"/><line class="cls-4" x1="174.22" y1="6" x2="161.82" y2="6"/><line class="cls-2" x1="174" y1="86" x2="162" y2="86"/><line class="cls-3" x1="198.47" y1="86.13" x2="174" y2="85.87"/><path d="M210.17,11.5h7.55a17.44,17.44,0,0,0,0-8H210.2A18.61,18.61,0,0,1,210.17,11.5Z" transform="translate(-2 -1.5)"/><path d="M209.18,3.5h-8.71v8h8.67A17.44,17.44,0,0,0,209.18,3.5Z" transform="translate(-2 -1.5)"/><path d="M231,4.48l-5.45.31L225.4,3.5h-6.62a18.61,18.61,0,0,1,0,8h6.39l.17-1.32,6.08.35L235,8.15v-1Z" transform="translate(-2 -1.5)"/><path d="M210.17,91.5h7.55a17.44,17.44,0,0,0,0-8H210.2A18.61,18.61,0,0,1,210.17,91.5Z" transform="translate(-2 -1.5)"/><path d="M209.18,83.5h-8.71v8h8.67A17.44,17.44,0,0,0,209.18,83.5Z" transform="translate(-2 -1.5)"/><path d="M231,84.48l-5.45.31-.17-1.29h-6.62a18.61,18.61,0,0,1,0,8h6.39l.17-1.32,6.08.35L235,88.15v-1Z" transform="translate(-2 -1.5)"/><text class="cls-5" transform="translate(3 56.84) scale(1.06 1)">aux</text><text class="cls-6" transform="translate(135 58.38)">Co<tspan class="cls-7" x="49.97" y="0">r</tspan><tspan class="cls-8" x="62.66" y="0">d</tspan></text></svg>