<svg id="Layer_1" data-name="Layer 1" xmlns="http://www.w3.org/2000/svg" viewBox="0 0 268.01 92.13"><defs><style>.cls-1,.cls-2,.cls-3,.cls-4,.cls-5{fill:none;}.cls-1,.cls-2,.cls-3,.cls-4{stroke:#000;stroke-miterlimit:10;}.cls-1{stroke-width:7px;}.cls-2{stroke-width:8px;}.cls-3{stroke-width:12px;}.cls-4{stroke-width:9px;}</style></defs><title>logo_black</title><path class="cls-1" d="M208.67,87.5h0a61.2,61.2,0,0,1-45.2-19.94L146.84,49.34c-1.11-1.23-2.28-2.4-3.49-3.53L126.29,29.92C115,19.37,99.64,11.5,84.17,11.5h-72" transform="translate(-11.67 -1.5)"/><path class="cls-2" d="M208.67,7.5h0a61.2,61.2,0,0,0-45.2,19.94L146.25,46.31c-.72.79-1.47,1.57-2.23,2.32L126.54,65.88C115.09,77.17,99.75,84,83.67,84h-72" transform="translate(-11.67 -1.5)"/><line class="cls-3" x1="233.47" y1="6" x2="209.22" y2="6"/><line class="cls-4" x1="209.22" y1="6" x2="196.82" y2="6"/><line class="cls-2" x1="209" y1="86" x2="197" y2="86"/><line class="cls-3" x1="233.47" y1="86.13" x2="209" y2="85.87"/><path d="M254.83,11.5h7.56a17.58,17.58,0,0,0,0-8h-7.56A18.45,18.45,0,0,1,254.83,11.5Z" transform="translate(-11.67 -1.5)"/><path d="M253.85,3.5h-8.71v8h8.67A17.58,17.58,0,0,0,253.85,3.5Z" transform="translate(-11.67 -1.5)"/><path d="M275.69,4.48l-5.45.31-.17-1.29h-6.62a18.45,18.45,0,0,1,0,8h6.39l.18-1.32,6.08.35,3.62-2.38v-1Z" transform="translate(-11.67 -1.5)"/><path d="M254.83,91.5h7.56a17.58,17.58,0,0,0,0-8h-7.56A18.45,18.45,0,0,1,254.83,91.5Z" transform="translate(-11.67 -1.5)"/><path d="M253.85,83.5h-8.71v8h8.67A17.58,17.58,0,0,0,253.85,83.5Z" transform="translate(-11.67 -1.5)"/><path d="M275.69,84.48l-5.45.31-.17-1.29h-6.62a18.45,18.45,0,0,1,0,8h6.39l.18-1.32,6.08.35,3.62-2.38v-1Z" transform="translate(-11.67 -1.5)"/><line class="cls-5" x1="72" y1="89.5" x2="1" y2="89.5"/><path d="M62.87,58.5a6.75,6.75,0,0,1-.46-2A7.24,7.24,0,0,1,57,58.85a6.74,6.74,0,0,1-4.62-1.59,5.14,5.14,0,0,1-1.8-4,5.41,5.41,0,0,1,2.26-4.62A10.72,10.72,0,0,1,59.2,47h3.16v-1.5a3.64,3.64,0,0,0-1-2.71,4.07,4.07,0,0,0-3-1,4.68,4.68,0,0,0-2.91.88,2.56,2.56,0,0,0-1.18,2.12H51A4.52,4.52,0,0,1,52,42a7,7,0,0,1,2.74-2.1,9.36,9.36,0,0,1,3.81-.77,7.54,7.54,0,0,1,5.15,1.64,5.93,5.93,0,0,1,1.93,4.53v8.75a10.62,10.62,0,0,0,.67,4.17v.28ZM57.47,56a5.67,5.67,0,0,0,2.9-.79,4.75,4.75,0,0,0,2-2.06v-3.9H59.81c-4,0-6,1.17-6,3.5a3,3,0,0,0,1,2.39A4,4,0,0,0,57.47,56Z" transform="translate(-11.67 -1.5)"/><path d="M82.45,56.62a6.89,6.89,0,0,1-5.57,2.23,5.9,5.9,0,0,1-4.63-1.77,7.62,7.62,0,0,1-1.61-5.22V39.48h3.25V51.77q0,4.32,3.52,4.32c2.48,0,4.13-.92,5-2.78V39.48h3.26v19h-3.1Z" transform="translate(-11.67 -1.5)"/><path d="M96.94,46.42l4.21-6.94H105l-6.22,9.4,6.42,9.62h-3.77L97,51.38l-4.4,7.12H88.82l6.41-9.62L89,39.48h3.76Z" transform="translate(-11.67 -1.5)"/><path d="M201.36,53.38a9.2,9.2,0,0,1-3.19,6.27,10.87,10.87,0,0,1-7.13,2.2,9.87,9.87,0,0,1-7.74-3.25,12.57,12.57,0,0,1-2.91-8.7V47.44a13.79,13.79,0,0,1,1.36-6.28A9.8,9.8,0,0,1,185.59,37a11.31,11.31,0,0,1,5.77-1.45,10.24,10.24,0,0,1,7,2.28,9.29,9.29,0,0,1,3,6.3h-3.61a7.11,7.11,0,0,0-2-4.44,6.35,6.35,0,0,0-4.36-1.38,6.57,6.57,0,0,0-5.4,2.4q-2,2.38-2,6.81V50a10.74,10.74,0,0,0,1.86,6.63A6.1,6.1,0,0,0,191,59.09a7.23,7.23,0,0,0,4.59-1.27,6.89,6.89,0,0,0,2.12-4.44Z" transform="translate(-11.67 -1.5)"/><path d="M204.81,51.81a10.65,10.65,0,0,1,1.17-5,8.4,8.4,0,0,1,3.25-3.45A9.28,9.28,0,0,1,214,42.13a8.81,8.81,0,0,1,6.69,2.69A10,10,0,0,1,223.23,52v.23a10.68,10.68,0,0,1-1.13,5,8.19,8.19,0,0,1-3.23,3.44A9.44,9.44,0,0,1,214,61.85a8.76,8.76,0,0,1-6.67-2.69A9.91,9.91,0,0,1,204.81,52Zm3.48.39a7.8,7.8,0,0,0,1.56,5.08,5.49,5.49,0,0,0,8.37,0,8.45,8.45,0,0,0,1.55-5.44,7.76,7.76,0,0,0-1.58-5.07A5.14,5.14,0,0,0,214,44.8a5.06,5.06,0,0,0-4.13,1.92A8.4,8.4,0,0,0,208.29,52.2Z" transform="translate(-11.67 -1.5)"/><path d="M237.36,45.4a11.34,11.34,0,0,0-1.7-.12A4.6,4.6,0,0,0,231,48V61.5h-3.46v-19h3.37l.06,2.2a5.46,5.46,0,0,1,4.82-2.55,3.64,3.64,0,0,1,1.54.25Z" transform="translate(-11.67 -1.5)"/><path d="M239.34,51.83a10.69,10.69,0,0,1,2.21-7A7.84,7.84,0,0,1,253,44.41V34.5h3.46v27h-3.18l-.17-2a7.25,7.25,0,0,1-5.78,2.39,7.06,7.06,0,0,1-5.73-2.71,10.77,10.77,0,0,1-2.22-7.06Zm3.46.37a8.1,8.1,0,0,0,1.42,5.06,4.71,4.71,0,0,0,3.93,1.83A5.08,5.08,0,0,0,253,56.31V47.58a5.13,5.13,0,0,0-4.77-2.69,4.72,4.72,0,0,0-4,1.84A8.93,8.93,0,0,0,242.8,52.2Z" transform="translate(-11.67 -1.5)"/></svg>